<?xml version="1.0" standalone="no"?>
<!DOCTYPE svg PUBLIC "-//W3C//DTD SVG 20010904//EN"
 "http://www.w3.org/TR/2001/REC-SVG-20010904/DTD/svg10.dtd">
<svg version="1.0" xmlns="http://www.w3.org/2000/svg"
 width="306.000000pt" height="165.000000pt" viewBox="0 0 306.000000 165.000000"
 preserveAspectRatio="xMidYMid meet">

<g transform="translate(0.000000,165.000000) scale(0.100000,-0.100000)"
fill="#000000" stroke="none">
<path d="M1555 1641 c-11 -5 -29 -18 -39 -30 -11 -11 -30 -21 -43 -21 -14 0
-38 -13 -55 -30 -23 -23 -36 -29 -52 -24 -35 11 -98 5 -125 -12 -37 -25 -71
-65 -71 -84 0 -9 -13 -26 -29 -37 -51 -38 -47 -103 10 -155 l30 -28 -37 -71
c-34 -64 -36 -72 -21 -86 14 -14 17 -13 30 13 8 16 21 49 28 72 l13 44 19 -37
c10 -21 23 -77 29 -129 13 -125 21 -139 86 -150 l52 -9 -6 -91 c-8 -131 -41
-212 -114 -287 -31 -32 -84 -104 -118 -161 -35 -59 -75 -115 -96 -131 -20 -15
-36 -34 -36 -41 0 -8 17 -22 38 -33 20 -10 56 -31 79 -47 29 -19 51 -26 74
-24 40 4 49 25 15 37 -29 12 -41 32 -50 86 -6 34 -3 47 20 80 45 67 134 163
184 200 28 21 56 53 68 78 12 23 32 56 47 72 l26 30 22 -29 c115 -150 127
-170 127 -205 0 -63 20 -114 78 -200 52 -76 57 -88 56 -136 0 -53 0 -53 35
-59 22 -3 43 0 56 8 11 7 34 13 52 14 17 0 43 8 57 17 24 16 26 16 26 1 0 -9
7 -16 15 -16 8 0 15 3 15 8 0 4 -39 221 -87 482 -58 316 -86 496 -85 539 1 66
-9 101 -31 101 -7 0 -30 -16 -50 -35 -32 -30 -44 -35 -87 -35 -48 0 -50 1 -40
20 7 13 8 39 4 67 -5 33 -4 44 5 39 17 -11 14 -2 -25 64 -41 70 -40 102 4 98
22 -3 27 2 35 30 6 17 13 32 18 32 11 0 4 133 -9 157 -12 21 -79 53 -110 52
-9 0 -26 -4 -37 -8z m-44 -166 c10 -10 19 -29 19 -42 0 -19 -5 -23 -29 -23
-17 0 -31 6 -35 16 -10 27 -7 94 7 117 11 21 12 20 15 -14 2 -21 12 -45 23
-54z m-271 -243 c0 -28 -11 -34 -26 -14 -19 24 -17 32 6 32 13 0 20 -7 20 -18z
m604 -219 c8 -38 157 -864 159 -883 3 -20 -83 -16 -99 5 -6 9 -18 13 -25 10
-8 -2 -22 7 -32 20 -19 27 -61 159 -78 245 -6 30 -15 73 -20 95 -5 22 -14 70
-19 106 -5 36 -26 110 -46 165 -20 54 -39 122 -41 150 l-5 51 69 31 c37 17 82
31 100 31 26 1 32 -3 37 -26z"/>
</g>
</svg>
